<?xml version="1.0" encoding="UTF-8" standalone="no"?>
<!-- Created with Inkscape (http://www.inkscape.org/) -->

<svg
   xmlns:dc="http://purl.org/dc/elements/1.1/"
   xmlns:cc="http://creativecommons.org/ns#"
   xmlns:rdf="http://www.w3.org/1999/02/22-rdf-syntax-ns#"
   xmlns:svg="http://www.w3.org/2000/svg"
   xmlns="http://www.w3.org/2000/svg"
   xmlns:sodipodi="http://sodipodi.sourceforge.net/DTD/sodipodi-0.dtd"
   xmlns:inkscape="http://www.inkscape.org/namespaces/inkscape"
   width="4in"
   height="4in"
   viewBox="0 0 101.6 101.6"
   version="1.1"
   id="svg8"
   inkscape:version="0.91 r13725"
   sodipodi:docname="NewSpeed&amp;PowerLaserReady2.svg">
  <defs
     id="defs2">
    <marker
       style="overflow:visible"
       refY="0"
       refX="0"
       orient="auto"
       id="DistanceX">
      <path
         id="path4508"
         style="stroke:#000000;stroke-width:0.5"
         d="M 3,-3 -3,3 M 0,-5 V 5"
         inkscape:connector-curvature="0" />
    </marker>
    <pattern
       y="0"
       x="0"
       width="8"
       patternUnits="userSpaceOnUse"
       id="Hatch"
       height="8">
      <path
         id="path4511"
         stroke-width="0.25"
         stroke="#000000"
         linecap="square"
         d="M8 4 l-4,4" />
      <path
         id="path4513"
         stroke-width="0.25"
         stroke="#000000"
         linecap="square"
         d="M6 2 l-4,4" />
      <path
         id="path4515"
         stroke-width="0.25"
         stroke="#000000"
         linecap="square"
         d="M4 0 l-4,4" />
    </pattern>
    <marker
       style="overflow:visible"
       refY="0"
       refX="0"
       orient="auto"
       id="DistanceX-9">
      <path
         id="path5114"
         style="stroke:#000000;stroke-width:0.5"
         d="M 3,-3 -3,3 M 0,-5 V 5"
         inkscape:connector-curvature="0" />
    </marker>
    <pattern
       y="0"
       x="0"
       width="8"
       patternUnits="userSpaceOnUse"
       id="Hatch-9"
       height="8">
      <path
         id="path5117"
         stroke-width="0.25"
         stroke="#000000"
         linecap="square"
         d="M8 4 l-4,4" />
      <path
         id="path5119"
         stroke-width="0.25"
         stroke="#000000"
         linecap="square"
         d="M6 2 l-4,4" />
      <path
         id="path5121"
         stroke-width="0.25"
         stroke="#000000"
         linecap="square"
         d="M4 0 l-4,4" />
    </pattern>
    <marker
       style="overflow:visible"
       refY="0"
       refX="0"
       orient="auto"
       id="DistanceX-8">
      <path
         id="path5155"
         style="stroke:#000000;stroke-width:0.5"
         d="M 3,-3 -3,3 M 0,-5 V 5"
         inkscape:connector-curvature="0" />
    </marker>
    <pattern
       y="0"
       x="0"
       width="8"
       patternUnits="userSpaceOnUse"
       id="Hatch-4"
       height="8">
      <path
         id="path5158"
         stroke-width="0.25"
         stroke="#000000"
         linecap="square"
         d="M8 4 l-4,4" />
      <path
         id="path5160"
         stroke-width="0.25"
         stroke="#000000"
         linecap="square"
         d="M6 2 l-4,4" />
      <path
         id="path5162"
         stroke-width="0.25"
         stroke="#000000"
         linecap="square"
         d="M4 0 l-4,4" />
    </pattern>
  </defs>
  <sodipodi:namedview
     id="base"
     pagecolor="#ffffff"
     bordercolor="#666666"
     borderopacity="1.0"
     inkscape:pageopacity="0.0"
     inkscape:pageshadow="2"
     inkscape:zoom="1.4142136"
     inkscape:cx="213.3135"
     inkscape:cy="56.377312"
     inkscape:document-units="in"
     inkscape:current-layer="text6248-0"
     showgrid="false"
     showguides="true"
     units="in"
     inkscape:guide-bbox="true"
     inkscape:window-width="1920"
     inkscape:window-height="1017"
     inkscape:window-x="-8"
     inkscape:window-y="-8"
     inkscape:window-maximized="1"
     inkscape:measure-start="0,0"
     inkscape:measure-end="0,0">
    <inkscape:grid
       type="xygrid"
       id="grid4485" />
    <sodipodi:guide
       position="50.743304,216.76935"
       orientation="1,0"
       id="guide4502"
       inkscape:locked="false" />
  </sodipodi:namedview>
  <metadata
     id="metadata5">
    <rdf:RDF>
      <cc:Work
         rdf:about="">
        <dc:format>image/svg+xml</dc:format>
        <dc:type
           rdf:resource="http://purl.org/dc/dcmitype/StillImage" />
        <dc:title></dc:title>
      </cc:Work>
    </rdf:RDF>
  </metadata>
  <text
     xml:space="preserve"
     style="font-style:normal;font-weight:normal;font-size:10.58333302px;line-height:352.777771px;font-family:sans-serif;letter-spacing:0px;word-spacing:0px;fill:#000000;fill-opacity:1;stroke:none;stroke-width:0.26458332"
     x="57.216145"
     y="295.47342"
     id="text6163"><tspan
       sodipodi:role="line"
       id="tspan6161"
       x="57.216145"
       y="295.47342"
       style="stroke-width:0.26458332" /></text>
  <g
     id="g3502">
    <g
       id="g4726"
       transform="translate(-1.5590442,-0.14585585)">
      <rect
         style="opacity:1;fill:none;fill-opacity:1;stroke:#000000;stroke-width:0.20803757;stroke-linejoin:round;stroke-miterlimit:4;stroke-dasharray:none;stroke-opacity:1"
         id="rect5546"
         width="4.653275"
         height="4.653275"
         x="24.09564"
         y="63.153744" />
      <rect
         style="opacity:1;fill:none;fill-opacity:1;stroke:#000000;stroke-width:0.20803757;stroke-linejoin:round;stroke-miterlimit:4;stroke-dasharray:none;stroke-opacity:1"
         id="rect5546-9"
         width="4.653275"
         height="4.653275"
         x="31.254456"
         y="63.153744" />
      <rect
         style="opacity:1;fill:none;fill-opacity:1;stroke:#000000;stroke-width:0.20803757;stroke-linejoin:round;stroke-miterlimit:4;stroke-dasharray:none;stroke-opacity:1"
         id="rect5546-1"
         width="4.653275"
         height="4.653275"
         x="38.413288"
         y="63.153744" />
      <rect
         style="opacity:1;fill:none;fill-opacity:1;stroke:#000000;stroke-width:0.20803757;stroke-linejoin:round;stroke-miterlimit:4;stroke-dasharray:none;stroke-opacity:1"
         id="rect5546-9-5"
         width="4.653275"
         height="4.653275"
         x="45.572109"
         y="63.153744" />
      <rect
         style="opacity:1;fill:none;fill-opacity:1;stroke:#000000;stroke-width:0.20803757;stroke-linejoin:round;stroke-miterlimit:4;stroke-dasharray:none;stroke-opacity:1"
         id="rect5546-8"
         width="4.653275"
         height="4.653275"
         x="52.730923"
         y="63.153744" />
      <rect
         style="opacity:1;fill:none;fill-opacity:1;stroke:#000000;stroke-width:0.20803757;stroke-linejoin:round;stroke-miterlimit:4;stroke-dasharray:none;stroke-opacity:1"
         id="rect5546-9-7"
         width="4.653275"
         height="4.653275"
         x="59.88974"
         y="63.153744" />
      <rect
         style="opacity:1;fill:none;fill-opacity:1;stroke:#000000;stroke-width:0.20803757;stroke-linejoin:round;stroke-miterlimit:4;stroke-dasharray:none;stroke-opacity:1"
         id="rect5546-1-5"
         width="4.653275"
         height="4.653275"
         x="67.048546"
         y="63.153744" />
      <rect
         style="opacity:1;fill:none;fill-opacity:1;stroke:#000000;stroke-width:0.20803757;stroke-linejoin:round;stroke-miterlimit:4;stroke-dasharray:none;stroke-opacity:1"
         id="rect5546-9-5-0"
         width="4.653275"
         height="4.653275"
         x="74.207367"
         y="63.153744" />
      <rect
         style="opacity:1;fill:none;fill-opacity:1;stroke:#000000;stroke-width:0.20803757;stroke-linejoin:round;stroke-miterlimit:4;stroke-dasharray:none;stroke-opacity:1"
         id="rect5546-4"
         width="4.653275"
         height="4.653275"
         x="81.366188"
         y="63.153744" />
      <rect
         style="opacity:1;fill:none;fill-opacity:1;stroke:#000000;stroke-width:0.20803757;stroke-linejoin:round;stroke-miterlimit:4;stroke-dasharray:none;stroke-opacity:1"
         id="rect5546-9-3"
         width="4.653275"
         height="4.653275"
         x="88.525002"
         y="63.153744" />
      <rect
         style="opacity:1;fill:none;fill-opacity:1;stroke:#000000;stroke-width:0.20803757;stroke-linejoin:round;stroke-miterlimit:4;stroke-dasharray:none;stroke-opacity:1"
         id="rect5546-0"
         width="4.653275"
         height="4.653275"
         x="24.09564"
         y="69.907745" />
      <rect
         style="opacity:1;fill:none;fill-opacity:1;stroke:#000000;stroke-width:0.20803757;stroke-linejoin:round;stroke-miterlimit:4;stroke-dasharray:none;stroke-opacity:1"
         id="rect5546-9-0"
         width="4.653275"
         height="4.653275"
         x="31.254456"
         y="69.907745" />
      <rect
         style="opacity:1;fill:none;fill-opacity:1;stroke:#000000;stroke-width:0.20803757;stroke-linejoin:round;stroke-miterlimit:4;stroke-dasharray:none;stroke-opacity:1"
         id="rect5546-1-6"
         width="4.653275"
         height="4.653275"
         x="38.413288"
         y="69.907745" />
      <rect
         style="opacity:1;fill:none;fill-opacity:1;stroke:#000000;stroke-width:0.20803757;stroke-linejoin:round;stroke-miterlimit:4;stroke-dasharray:none;stroke-opacity:1"
         id="rect5546-9-5-4"
         width="4.653275"
         height="4.653275"
         x="45.572109"
         y="69.907745" />
      <rect
         style="opacity:1;fill:none;fill-opacity:1;stroke:#000000;stroke-width:0.20803757;stroke-linejoin:round;stroke-miterlimit:4;stroke-dasharray:none;stroke-opacity:1"
         id="rect5546-8-0"
         width="4.653275"
         height="4.653275"
         x="52.730923"
         y="69.907745" />
      <rect
         style="opacity:1;fill:none;fill-opacity:1;stroke:#000000;stroke-width:0.20803757;stroke-linejoin:round;stroke-miterlimit:4;stroke-dasharray:none;stroke-opacity:1"
         id="rect5546-9-7-3"
         width="4.653275"
         height="4.653275"
         x="59.88974"
         y="69.907745" />
      <rect
         style="opacity:1;fill:none;fill-opacity:1;stroke:#000000;stroke-width:0.20803757;stroke-linejoin:round;stroke-miterlimit:4;stroke-dasharray:none;stroke-opacity:1"
         id="rect5546-1-5-8"
         width="4.653275"
         height="4.653275"
         x="67.048546"
         y="69.907745" />
      <rect
         style="opacity:1;fill:none;fill-opacity:1;stroke:#000000;stroke-width:0.20803757;stroke-linejoin:round;stroke-miterlimit:4;stroke-dasharray:none;stroke-opacity:1"
         id="rect5546-9-5-0-2"
         width="4.653275"
         height="4.653275"
         x="74.207367"
         y="69.907745" />
      <rect
         style="opacity:1;fill:none;fill-opacity:1;stroke:#000000;stroke-width:0.20803757;stroke-linejoin:round;stroke-miterlimit:4;stroke-dasharray:none;stroke-opacity:1"
         id="rect5546-4-3"
         width="4.653275"
         height="4.653275"
         x="81.366188"
         y="69.907745" />
      <rect
         style="opacity:1;fill:none;fill-opacity:1;stroke:#000000;stroke-width:0.20803757;stroke-linejoin:round;stroke-miterlimit:4;stroke-dasharray:none;stroke-opacity:1"
         id="rect5546-9-3-7"
         width="4.653275"
         height="4.653275"
         x="88.525002"
         y="69.907745" />
      <rect
         style="opacity:1;fill:none;fill-opacity:1;stroke:#000000;stroke-width:0.20803757;stroke-linejoin:round;stroke-miterlimit:4;stroke-dasharray:none;stroke-opacity:1"
         id="rect5546-12"
         width="4.653275"
         height="4.653275"
         x="24.09564"
         y="76.661743" />
      <rect
         style="opacity:1;fill:none;fill-opacity:1;stroke:#000000;stroke-width:0.20803757;stroke-linejoin:round;stroke-miterlimit:4;stroke-dasharray:none;stroke-opacity:1"
         id="rect5546-9-71"
         width="4.653275"
         height="4.653275"
         x="31.254456"
         y="76.661743" />
      <rect
         style="opacity:1;fill:none;fill-opacity:1;stroke:#000000;stroke-width:0.20803757;stroke-linejoin:round;stroke-miterlimit:4;stroke-dasharray:none;stroke-opacity:1"
         id="rect5546-1-7"
         width="4.653275"
         height="4.653275"
         x="38.413288"
         y="76.661743" />
      <rect
         style="opacity:1;fill:none;fill-opacity:1;stroke:#000000;stroke-width:0.20803757;stroke-linejoin:round;stroke-miterlimit:4;stroke-dasharray:none;stroke-opacity:1"
         id="rect5546-9-5-2"
         width="4.653275"
         height="4.653275"
         x="45.572109"
         y="76.661743" />
      <rect
         style="opacity:1;fill:none;fill-opacity:1;stroke:#000000;stroke-width:0.20803757;stroke-linejoin:round;stroke-miterlimit:4;stroke-dasharray:none;stroke-opacity:1"
         id="rect5546-8-6"
         width="4.653275"
         height="4.653275"
         x="52.730923"
         y="76.661743" />
      <rect
         style="opacity:1;fill:none;fill-opacity:1;stroke:#000000;stroke-width:0.20803757;stroke-linejoin:round;stroke-miterlimit:4;stroke-dasharray:none;stroke-opacity:1"
         id="rect5546-9-7-38"
         width="4.653275"
         height="4.653275"
         x="59.88974"
         y="76.661743" />
      <rect
         style="opacity:1;fill:none;fill-opacity:1;stroke:#000000;stroke-width:0.20803757;stroke-linejoin:round;stroke-miterlimit:4;stroke-dasharray:none;stroke-opacity:1"
         id="rect5546-1-5-5"
         width="4.653275"
         height="4.653275"
         x="67.048546"
         y="76.661743" />
      <rect
         style="opacity:1;fill:none;fill-opacity:1;stroke:#000000;stroke-width:0.20803757;stroke-linejoin:round;stroke-miterlimit:4;stroke-dasharray:none;stroke-opacity:1"
         id="rect5546-9-5-0-7"
         width="4.653275"
         height="4.653275"
         x="74.207367"
         y="76.661743" />
      <rect
         style="opacity:1;fill:none;fill-opacity:1;stroke:#000000;stroke-width:0.20803757;stroke-linejoin:round;stroke-miterlimit:4;stroke-dasharray:none;stroke-opacity:1"
         id="rect5546-4-7"
         width="4.653275"
         height="4.653275"
         x="81.366188"
         y="76.661743" />
      <rect
         style="opacity:1;fill:none;fill-opacity:1;stroke:#000000;stroke-width:0.20803757;stroke-linejoin:round;stroke-miterlimit:4;stroke-dasharray:none;stroke-opacity:1"
         id="rect5546-9-3-74"
         width="4.653275"
         height="4.653275"
         x="88.525002"
         y="76.661743" />
      <rect
         style="opacity:1;fill:none;fill-opacity:1;stroke:#000000;stroke-width:0.20803757;stroke-linejoin:round;stroke-miterlimit:4;stroke-dasharray:none;stroke-opacity:1"
         id="rect5546-10"
         width="4.653275"
         height="4.653275"
         x="24.09564"
         y="83.415741" />
      <rect
         style="opacity:1;fill:none;fill-opacity:1;stroke:#000000;stroke-width:0.20803757;stroke-linejoin:round;stroke-miterlimit:4;stroke-dasharray:none;stroke-opacity:1"
         id="rect5546-9-8"
         width="4.653275"
         height="4.653275"
         x="31.254456"
         y="83.415741" />
      <rect
         style="opacity:1;fill:none;fill-opacity:1;stroke:#000000;stroke-width:0.20803757;stroke-linejoin:round;stroke-miterlimit:4;stroke-dasharray:none;stroke-opacity:1"
         id="rect5546-1-2"
         width="4.653275"
         height="4.653275"
         x="38.413288"
         y="83.415741" />
      <rect
         style="opacity:1;fill:none;fill-opacity:1;stroke:#000000;stroke-width:0.20803757;stroke-linejoin:round;stroke-miterlimit:4;stroke-dasharray:none;stroke-opacity:1"
         id="rect5546-9-5-25"
         width="4.653275"
         height="4.653275"
         x="45.572109"
         y="83.415741" />
      <rect
         style="opacity:1;fill:none;fill-opacity:1;stroke:#000000;stroke-width:0.20803757;stroke-linejoin:round;stroke-miterlimit:4;stroke-dasharray:none;stroke-opacity:1"
         id="rect5546-8-2"
         width="4.653275"
         height="4.653275"
         x="52.730923"
         y="83.415741" />
      <rect
         style="opacity:1;fill:none;fill-opacity:1;stroke:#000000;stroke-width:0.20803757;stroke-linejoin:round;stroke-miterlimit:4;stroke-dasharray:none;stroke-opacity:1"
         id="rect5546-9-7-1"
         width="4.653275"
         height="4.653275"
         x="59.88974"
         y="83.415741" />
      <rect
         style="opacity:1;fill:none;fill-opacity:1;stroke:#000000;stroke-width:0.20803757;stroke-linejoin:round;stroke-miterlimit:4;stroke-dasharray:none;stroke-opacity:1"
         id="rect5546-1-5-51"
         width="4.653275"
         height="4.653275"
         x="67.048546"
         y="83.415741" />
      <rect
         style="opacity:1;fill:none;fill-opacity:1;stroke:#000000;stroke-width:0.20803757;stroke-linejoin:round;stroke-miterlimit:4;stroke-dasharray:none;stroke-opacity:1"
         id="rect5546-9-5-0-72"
         width="4.653275"
         height="4.653275"
         x="74.207367"
         y="83.415741" />
      <rect
         style="opacity:1;fill:none;fill-opacity:1;stroke:#000000;stroke-width:0.20803757;stroke-linejoin:round;stroke-miterlimit:4;stroke-dasharray:none;stroke-opacity:1"
         id="rect5546-4-8"
         width="4.653275"
         height="4.653275"
         x="81.366188"
         y="83.415741" />
      <rect
         style="opacity:1;fill:none;fill-opacity:1;stroke:#000000;stroke-width:0.20803757;stroke-linejoin:round;stroke-miterlimit:4;stroke-dasharray:none;stroke-opacity:1"
         id="rect5546-9-3-5"
         width="4.653275"
         height="4.653275"
         x="88.525002"
         y="83.415741" />
      <rect
         style="opacity:1;fill:none;fill-opacity:1;stroke:#000000;stroke-width:0.20803757;stroke-linejoin:round;stroke-miterlimit:4;stroke-dasharray:none;stroke-opacity:1"
         id="rect5546-2"
         width="4.653275"
         height="4.653275"
         x="24.09564"
         y="56.399746" />
      <rect
         style="opacity:1;fill:none;fill-opacity:1;stroke:#000000;stroke-width:0.20803757;stroke-linejoin:round;stroke-miterlimit:4;stroke-dasharray:none;stroke-opacity:1"
         id="rect5546-9-2"
         width="4.653275"
         height="4.653275"
         x="31.254456"
         y="56.399746" />
      <rect
         style="opacity:1;fill:none;fill-opacity:1;stroke:#000000;stroke-width:0.20803757;stroke-linejoin:round;stroke-miterlimit:4;stroke-dasharray:none;stroke-opacity:1"
         id="rect5546-1-3"
         width="4.653275"
         height="4.653275"
         x="38.413288"
         y="56.399746" />
      <rect
         style="opacity:1;fill:none;fill-opacity:1;stroke:#000000;stroke-width:0.20803757;stroke-linejoin:round;stroke-miterlimit:4;stroke-dasharray:none;stroke-opacity:1"
         id="rect5546-9-5-9"
         width="4.653275"
         height="4.653275"
         x="45.572109"
         y="56.399746" />
      <rect
         style="opacity:1;fill:none;fill-opacity:1;stroke:#000000;stroke-width:0.20803757;stroke-linejoin:round;stroke-miterlimit:4;stroke-dasharray:none;stroke-opacity:1"
         id="rect5546-8-1"
         width="4.653275"
         height="4.653275"
         x="52.730923"
         y="56.399746" />
      <rect
         style="opacity:1;fill:none;fill-opacity:1;stroke:#000000;stroke-width:0.20803757;stroke-linejoin:round;stroke-miterlimit:4;stroke-dasharray:none;stroke-opacity:1"
         id="rect5546-9-7-2"
         width="4.653275"
         height="4.653275"
         x="59.88974"
         y="56.399746" />
      <rect
         style="opacity:1;fill:none;fill-opacity:1;stroke:#000000;stroke-width:0.20803757;stroke-linejoin:round;stroke-miterlimit:4;stroke-dasharray:none;stroke-opacity:1"
         id="rect5546-1-5-3"
         width="4.653275"
         height="4.653275"
         x="67.048546"
         y="56.399746" />
      <rect
         style="opacity:1;fill:none;fill-opacity:1;stroke:#000000;stroke-width:0.20803757;stroke-linejoin:round;stroke-miterlimit:4;stroke-dasharray:none;stroke-opacity:1"
         id="rect5546-9-5-0-5"
         width="4.653275"
         height="4.653275"
         x="74.207367"
         y="56.399746" />
      <rect
         style="opacity:1;fill:none;fill-opacity:1;stroke:#000000;stroke-width:0.20803757;stroke-linejoin:round;stroke-miterlimit:4;stroke-dasharray:none;stroke-opacity:1"
         id="rect5546-4-9"
         width="4.653275"
         height="4.653275"
         x="81.366188"
         y="56.399746" />
      <rect
         style="opacity:1;fill:none;fill-opacity:1;stroke:#000000;stroke-width:0.20803757;stroke-linejoin:round;stroke-miterlimit:4;stroke-dasharray:none;stroke-opacity:1"
         id="rect5546-9-3-6"
         width="4.653275"
         height="4.653275"
         x="88.525002"
         y="56.399746" />
      <rect
         style="opacity:1;fill:none;fill-opacity:1;stroke:#000000;stroke-width:0.20803757;stroke-linejoin:round;stroke-miterlimit:4;stroke-dasharray:none;stroke-opacity:1"
         id="rect5546-94"
         width="4.653275"
         height="4.653275"
         x="24.09564"
         y="29.383768" />
      <rect
         style="opacity:1;fill:none;fill-opacity:1;stroke:#000000;stroke-width:0.20803757;stroke-linejoin:round;stroke-miterlimit:4;stroke-dasharray:none;stroke-opacity:1"
         id="rect5546-9-58"
         width="4.653275"
         height="4.653275"
         x="31.254456"
         y="29.383768" />
      <rect
         style="opacity:1;fill:none;fill-opacity:1;stroke:#000000;stroke-width:0.20803757;stroke-linejoin:round;stroke-miterlimit:4;stroke-dasharray:none;stroke-opacity:1"
         id="rect5546-1-68"
         width="4.653275"
         height="4.653275"
         x="38.413288"
         y="29.383768" />
      <rect
         style="opacity:1;fill:none;fill-opacity:1;stroke:#000000;stroke-width:0.20803757;stroke-linejoin:round;stroke-miterlimit:4;stroke-dasharray:none;stroke-opacity:1"
         id="rect5546-9-5-40"
         width="4.653275"
         height="4.653275"
         x="45.572109"
         y="29.383768" />
      <rect
         style="opacity:1;fill:none;fill-opacity:1;stroke:#000000;stroke-width:0.20803757;stroke-linejoin:round;stroke-miterlimit:4;stroke-dasharray:none;stroke-opacity:1"
         id="rect5546-8-13"
         width="4.653275"
         height="4.653275"
         x="52.730923"
         y="29.383768" />
      <rect
         style="opacity:1;fill:none;fill-opacity:1;stroke:#000000;stroke-width:0.20803757;stroke-linejoin:round;stroke-miterlimit:4;stroke-dasharray:none;stroke-opacity:1"
         id="rect5546-9-7-39"
         width="4.653275"
         height="4.653275"
         x="59.88974"
         y="29.383768" />
      <rect
         style="opacity:1;fill:none;fill-opacity:1;stroke:#000000;stroke-width:0.20803757;stroke-linejoin:round;stroke-miterlimit:4;stroke-dasharray:none;stroke-opacity:1"
         id="rect5546-1-5-2"
         width="4.653275"
         height="4.653275"
         x="67.048546"
         y="29.383768" />
      <rect
         style="opacity:1;fill:none;fill-opacity:1;stroke:#000000;stroke-width:0.20803757;stroke-linejoin:round;stroke-miterlimit:4;stroke-dasharray:none;stroke-opacity:1"
         id="rect5546-9-5-0-8"
         width="4.653275"
         height="4.653275"
         x="74.207367"
         y="29.383768" />
      <rect
         style="opacity:1;fill:none;fill-opacity:1;stroke:#000000;stroke-width:0.20803757;stroke-linejoin:round;stroke-miterlimit:4;stroke-dasharray:none;stroke-opacity:1"
         id="rect5546-4-5"
         width="4.653275"
         height="4.653275"
         x="81.366188"
         y="29.383768" />
      <rect
         style="opacity:1;fill:none;fill-opacity:1;stroke:#000000;stroke-width:0.20803757;stroke-linejoin:round;stroke-miterlimit:4;stroke-dasharray:none;stroke-opacity:1"
         id="rect5546-9-3-3"
         width="4.653275"
         height="4.653275"
         x="88.525002"
         y="29.383768" />
      <rect
         style="opacity:1;fill:none;fill-opacity:1;stroke:#000000;stroke-width:0.20803757;stroke-linejoin:round;stroke-miterlimit:4;stroke-dasharray:none;stroke-opacity:1"
         id="rect5546-0-5"
         width="4.653275"
         height="4.653275"
         x="24.09564"
         y="36.13776" />
      <rect
         style="opacity:1;fill:none;fill-opacity:1;stroke:#000000;stroke-width:0.20803757;stroke-linejoin:round;stroke-miterlimit:4;stroke-dasharray:none;stroke-opacity:1"
         id="rect5546-9-0-1"
         width="4.653275"
         height="4.653275"
         x="31.254456"
         y="36.13776" />
      <rect
         style="opacity:1;fill:none;fill-opacity:1;stroke:#000000;stroke-width:0.20803757;stroke-linejoin:round;stroke-miterlimit:4;stroke-dasharray:none;stroke-opacity:1"
         id="rect5546-1-6-0"
         width="4.653275"
         height="4.653275"
         x="38.413288"
         y="36.13776" />
      <rect
         style="opacity:1;fill:none;fill-opacity:1;stroke:#000000;stroke-width:0.20803757;stroke-linejoin:round;stroke-miterlimit:4;stroke-dasharray:none;stroke-opacity:1"
         id="rect5546-9-5-4-2"
         width="4.653275"
         height="4.653275"
         x="45.572109"
         y="36.13776" />
      <rect
         style="opacity:1;fill:none;fill-opacity:1;stroke:#000000;stroke-width:0.20803757;stroke-linejoin:round;stroke-miterlimit:4;stroke-dasharray:none;stroke-opacity:1"
         id="rect5546-8-0-7"
         width="4.653275"
         height="4.653275"
         x="52.730923"
         y="36.13776" />
      <rect
         style="opacity:1;fill:none;fill-opacity:1;stroke:#000000;stroke-width:0.20803757;stroke-linejoin:round;stroke-miterlimit:4;stroke-dasharray:none;stroke-opacity:1"
         id="rect5546-9-7-3-8"
         width="4.653275"
         height="4.653275"
         x="59.88974"
         y="36.13776" />
      <rect
         style="opacity:1;fill:none;fill-opacity:1;stroke:#000000;stroke-width:0.20803757;stroke-linejoin:round;stroke-miterlimit:4;stroke-dasharray:none;stroke-opacity:1"
         id="rect5546-1-5-8-6"
         width="4.653275"
         height="4.653275"
         x="67.048546"
         y="36.13776" />
      <rect
         style="opacity:1;fill:none;fill-opacity:1;stroke:#000000;stroke-width:0.20803757;stroke-linejoin:round;stroke-miterlimit:4;stroke-dasharray:none;stroke-opacity:1"
         id="rect5546-9-5-0-2-6"
         width="4.653275"
         height="4.653275"
         x="74.207367"
         y="36.13776" />
      <rect
         style="opacity:1;fill:none;fill-opacity:1;stroke:#000000;stroke-width:0.20803757;stroke-linejoin:round;stroke-miterlimit:4;stroke-dasharray:none;stroke-opacity:1"
         id="rect5546-4-3-4"
         width="4.653275"
         height="4.653275"
         x="81.366188"
         y="36.13776" />
      <rect
         style="opacity:1;fill:none;fill-opacity:1;stroke:#000000;stroke-width:0.20803757;stroke-linejoin:round;stroke-miterlimit:4;stroke-dasharray:none;stroke-opacity:1"
         id="rect5546-9-3-7-9"
         width="4.653275"
         height="4.653275"
         x="88.525002"
         y="36.13776" />
      <rect
         style="opacity:1;fill:none;fill-opacity:1;stroke:#000000;stroke-width:0.20803757;stroke-linejoin:round;stroke-miterlimit:4;stroke-dasharray:none;stroke-opacity:1"
         id="rect5546-12-1"
         width="4.653275"
         height="4.653275"
         x="24.09564"
         y="42.89175" />
      <rect
         style="opacity:1;fill:none;fill-opacity:1;stroke:#000000;stroke-width:0.20803757;stroke-linejoin:round;stroke-miterlimit:4;stroke-dasharray:none;stroke-opacity:1"
         id="rect5546-9-71-9"
         width="4.653275"
         height="4.653275"
         x="31.254456"
         y="42.89175" />
      <rect
         style="opacity:1;fill:none;fill-opacity:1;stroke:#000000;stroke-width:0.20803757;stroke-linejoin:round;stroke-miterlimit:4;stroke-dasharray:none;stroke-opacity:1"
         id="rect5546-1-7-0"
         width="4.653275"
         height="4.653275"
         x="38.413288"
         y="42.89175" />
      <rect
         style="opacity:1;fill:none;fill-opacity:1;stroke:#000000;stroke-width:0.20803757;stroke-linejoin:round;stroke-miterlimit:4;stroke-dasharray:none;stroke-opacity:1"
         id="rect5546-9-5-2-1"
         width="4.653275"
         height="4.653275"
         x="45.572109"
         y="42.89175" />
      <rect
         style="opacity:1;fill:none;fill-opacity:1;stroke:#000000;stroke-width:0.20803757;stroke-linejoin:round;stroke-miterlimit:4;stroke-dasharray:none;stroke-opacity:1"
         id="rect5546-8-6-4"
         width="4.653275"
         height="4.653275"
         x="52.730923"
         y="42.89175" />
      <rect
         style="opacity:1;fill:none;fill-opacity:1;stroke:#000000;stroke-width:0.20803757;stroke-linejoin:round;stroke-miterlimit:4;stroke-dasharray:none;stroke-opacity:1"
         id="rect5546-9-7-38-1"
         width="4.653275"
         height="4.653275"
         x="59.88974"
         y="42.89175" />
      <rect
         style="opacity:1;fill:none;fill-opacity:1;stroke:#000000;stroke-width:0.20803757;stroke-linejoin:round;stroke-miterlimit:4;stroke-dasharray:none;stroke-opacity:1"
         id="rect5546-1-5-5-9"
         width="4.653275"
         height="4.653275"
         x="67.048546"
         y="42.89175" />
      <rect
         style="opacity:1;fill:none;fill-opacity:1;stroke:#000000;stroke-width:0.20803757;stroke-linejoin:round;stroke-miterlimit:4;stroke-dasharray:none;stroke-opacity:1"
         id="rect5546-9-5-0-7-7"
         width="4.653275"
         height="4.653275"
         x="74.207367"
         y="42.89175" />
      <rect
         style="opacity:1;fill:none;fill-opacity:1;stroke:#000000;stroke-width:0.20803757;stroke-linejoin:round;stroke-miterlimit:4;stroke-dasharray:none;stroke-opacity:1"
         id="rect5546-4-7-6"
         width="4.653275"
         height="4.653275"
         x="81.366188"
         y="42.89175" />
      <rect
         style="opacity:1;fill:none;fill-opacity:1;stroke:#000000;stroke-width:0.20803757;stroke-linejoin:round;stroke-miterlimit:4;stroke-dasharray:none;stroke-opacity:1"
         id="rect5546-9-3-74-6"
         width="4.653275"
         height="4.653275"
         x="88.525002"
         y="42.89175" />
      <rect
         style="opacity:1;fill:none;fill-opacity:1;stroke:#000000;stroke-width:0.20803757;stroke-linejoin:round;stroke-miterlimit:4;stroke-dasharray:none;stroke-opacity:1"
         id="rect5546-10-6"
         width="4.653275"
         height="4.653275"
         x="24.09564"
         y="49.645752" />
      <rect
         style="opacity:1;fill:none;fill-opacity:1;stroke:#000000;stroke-width:0.20803757;stroke-linejoin:round;stroke-miterlimit:4;stroke-dasharray:none;stroke-opacity:1"
         id="rect5546-9-8-3"
         width="4.653275"
         height="4.653275"
         x="31.254456"
         y="49.645752" />
      <rect
         style="opacity:1;fill:none;fill-opacity:1;stroke:#000000;stroke-width:0.20803757;stroke-linejoin:round;stroke-miterlimit:4;stroke-dasharray:none;stroke-opacity:1"
         id="rect5546-1-2-6"
         width="4.653275"
         height="4.653275"
         x="38.413288"
         y="49.645752" />
      <rect
         style="opacity:1;fill:none;fill-opacity:1;stroke:#000000;stroke-width:0.20803757;stroke-linejoin:round;stroke-miterlimit:4;stroke-dasharray:none;stroke-opacity:1"
         id="rect5546-9-5-25-0"
         width="4.653275"
         height="4.653275"
         x="45.572109"
         y="49.645752" />
      <rect
         style="opacity:1;fill:none;fill-opacity:1;stroke:#000000;stroke-width:0.20803757;stroke-linejoin:round;stroke-miterlimit:4;stroke-dasharray:none;stroke-opacity:1"
         id="rect5546-8-2-8"
         width="4.653275"
         height="4.653275"
         x="52.730923"
         y="49.645752" />
      <rect
         style="opacity:1;fill:none;fill-opacity:1;stroke:#000000;stroke-width:0.20803757;stroke-linejoin:round;stroke-miterlimit:4;stroke-dasharray:none;stroke-opacity:1"
         id="rect5546-9-7-1-3"
         width="4.653275"
         height="4.653275"
         x="59.88974"
         y="49.645752" />
      <rect
         style="opacity:1;fill:none;fill-opacity:1;stroke:#000000;stroke-width:0.20803757;stroke-linejoin:round;stroke-miterlimit:4;stroke-dasharray:none;stroke-opacity:1"
         id="rect5546-1-5-51-9"
         width="4.653275"
         height="4.653275"
         x="67.048546"
         y="49.645752" />
      <rect
         style="opacity:1;fill:none;fill-opacity:1;stroke:#000000;stroke-width:0.20803757;stroke-linejoin:round;stroke-miterlimit:4;stroke-dasharray:none;stroke-opacity:1"
         id="rect5546-9-5-0-72-6"
         width="4.653275"
         height="4.653275"
         x="74.207367"
         y="49.645752" />
      <rect
         style="opacity:1;fill:none;fill-opacity:1;stroke:#000000;stroke-width:0.20803757;stroke-linejoin:round;stroke-miterlimit:4;stroke-dasharray:none;stroke-opacity:1"
         id="rect5546-4-8-7"
         width="4.653275"
         height="4.653275"
         x="81.366188"
         y="49.645752" />
      <rect
         style="opacity:1;fill:none;fill-opacity:1;stroke:#000000;stroke-width:0.20803757;stroke-linejoin:round;stroke-miterlimit:4;stroke-dasharray:none;stroke-opacity:1"
         id="rect5546-9-3-5-7"
         width="4.653275"
         height="4.653275"
         x="88.525002"
         y="49.645752" />
      <rect
         style="opacity:1;fill:none;fill-opacity:1;stroke:#000000;stroke-width:0.20803757;stroke-linejoin:round;stroke-miterlimit:4;stroke-dasharray:none;stroke-opacity:1"
         id="rect5546-2-7"
         width="4.653275"
         height="4.653275"
         x="24.09564"
         y="22.629765" />
      <rect
         style="opacity:1;fill:none;fill-opacity:1;stroke:#000000;stroke-width:0.20803757;stroke-linejoin:round;stroke-miterlimit:4;stroke-dasharray:none;stroke-opacity:1"
         id="rect5546-9-2-4"
         width="4.653275"
         height="4.653275"
         x="31.254456"
         y="22.629765" />
      <rect
         style="opacity:1;fill:none;fill-opacity:1;stroke:#000000;stroke-width:0.20803757;stroke-linejoin:round;stroke-miterlimit:4;stroke-dasharray:none;stroke-opacity:1"
         id="rect5546-1-3-0"
         width="4.653275"
         height="4.653275"
         x="38.413288"
         y="22.629765" />
      <rect
         style="opacity:1;fill:none;fill-opacity:1;stroke:#000000;stroke-width:0.20803757;stroke-linejoin:round;stroke-miterlimit:4;stroke-dasharray:none;stroke-opacity:1"
         id="rect5546-9-5-9-4"
         width="4.653275"
         height="4.653275"
         x="45.572109"
         y="22.629765" />
      <rect
         style="opacity:1;fill:none;fill-opacity:1;stroke:#000000;stroke-width:0.20803757;stroke-linejoin:round;stroke-miterlimit:4;stroke-dasharray:none;stroke-opacity:1"
         id="rect5546-8-1-3"
         width="4.653275"
         height="4.653275"
         x="52.730923"
         y="22.629765" />
      <rect
         style="opacity:1;fill:none;fill-opacity:1;stroke:#000000;stroke-width:0.20803757;stroke-linejoin:round;stroke-miterlimit:4;stroke-dasharray:none;stroke-opacity:1"
         id="rect5546-9-7-2-3"
         width="4.653275"
         height="4.653275"
         x="59.88974"
         y="22.629765" />
      <rect
         style="opacity:1;fill:none;fill-opacity:1;stroke:#000000;stroke-width:0.20803757;stroke-linejoin:round;stroke-miterlimit:4;stroke-dasharray:none;stroke-opacity:1"
         id="rect5546-1-5-3-0"
         width="4.653275"
         height="4.653275"
         x="67.048546"
         y="22.629765" />
      <rect
         style="opacity:1;fill:none;fill-opacity:1;stroke:#000000;stroke-width:0.20803757;stroke-linejoin:round;stroke-miterlimit:4;stroke-dasharray:none;stroke-opacity:1"
         id="rect5546-9-5-0-5-6"
         width="4.653275"
         height="4.653275"
         x="74.207367"
         y="22.629765" />
      <rect
         style="opacity:1;fill:none;fill-opacity:1;stroke:#000000;stroke-width:0.20803757;stroke-linejoin:round;stroke-miterlimit:4;stroke-dasharray:none;stroke-opacity:1"
         id="rect5546-4-9-0"
         width="4.653275"
         height="4.653275"
         x="81.366188"
         y="22.629765" />
      <rect
         style="opacity:1;fill:none;fill-opacity:1;stroke:#000000;stroke-width:0.20803757;stroke-linejoin:round;stroke-miterlimit:4;stroke-dasharray:none;stroke-opacity:1"
         id="rect5546-9-3-6-6"
         width="4.653275"
         height="4.653275"
         x="88.525002"
         y="22.629765" />
      <g
         transform="matrix(0.8190455,0,0,0.8190455,16.180887,50.638263)"
         id="g5633-2-7">
        <rect
           y="48.471962"
           x="9.6804714"
           height="5.6813388"
           width="5.6813388"
           id="rect5546-10-9"
           style="opacity:1;fill:none;fill-opacity:1;stroke:#000000;stroke-width:0.25400001;stroke-linejoin:round;stroke-miterlimit:4;stroke-dasharray:none;stroke-opacity:1" />
        <rect
           y="48.471962"
           x="18.420908"
           height="5.6813388"
           width="5.6813388"
           id="rect5546-9-8-2"
           style="opacity:1;fill:none;fill-opacity:1;stroke:#000000;stroke-width:0.25400001;stroke-linejoin:round;stroke-miterlimit:4;stroke-dasharray:none;stroke-opacity:1" />
        <rect
           y="48.471962"
           x="27.161345"
           height="5.6813388"
           width="5.6813388"
           id="rect5546-1-2-4"
           style="opacity:1;fill:none;fill-opacity:1;stroke:#000000;stroke-width:0.25400001;stroke-linejoin:round;stroke-miterlimit:4;stroke-dasharray:none;stroke-opacity:1" />
        <rect
           y="48.471962"
           x="35.901783"
           height="5.6813388"
           width="5.6813388"
           id="rect5546-9-5-25-6"
           style="opacity:1;fill:none;fill-opacity:1;stroke:#000000;stroke-width:0.25400001;stroke-linejoin:round;stroke-miterlimit:4;stroke-dasharray:none;stroke-opacity:1" />
        <rect
           y="48.471962"
           x="44.64222"
           height="5.6813388"
           width="5.6813388"
           id="rect5546-8-2-3"
           style="opacity:1;fill:none;fill-opacity:1;stroke:#000000;stroke-width:0.25400001;stroke-linejoin:round;stroke-miterlimit:4;stroke-dasharray:none;stroke-opacity:1" />
        <rect
           y="48.471962"
           x="53.38266"
           height="5.6813388"
           width="5.6813388"
           id="rect5546-9-7-1-9"
           style="opacity:1;fill:none;fill-opacity:1;stroke:#000000;stroke-width:0.25400001;stroke-linejoin:round;stroke-miterlimit:4;stroke-dasharray:none;stroke-opacity:1" />
        <rect
           y="48.471962"
           x="62.123089"
           height="5.6813388"
           width="5.6813388"
           id="rect5546-1-5-51-7"
           style="opacity:1;fill:none;fill-opacity:1;stroke:#000000;stroke-width:0.25400001;stroke-linejoin:round;stroke-miterlimit:4;stroke-dasharray:none;stroke-opacity:1" />
        <rect
           y="48.471962"
           x="70.863525"
           height="5.6813388"
           width="5.6813388"
           id="rect5546-9-5-0-72-7"
           style="opacity:1;fill:none;fill-opacity:1;stroke:#000000;stroke-width:0.25400001;stroke-linejoin:round;stroke-miterlimit:4;stroke-dasharray:none;stroke-opacity:1" />
        <rect
           y="48.471962"
           x="79.603966"
           height="5.6813388"
           width="5.6813388"
           id="rect5546-4-8-4"
           style="opacity:1;fill:none;fill-opacity:1;stroke:#000000;stroke-width:0.25400001;stroke-linejoin:round;stroke-miterlimit:4;stroke-dasharray:none;stroke-opacity:1" />
        <rect
           y="48.471962"
           x="88.344406"
           height="5.6813388"
           width="5.6813388"
           id="rect5546-9-3-5-4"
           style="opacity:1;fill:none;fill-opacity:1;stroke:#000000;stroke-width:0.25400001;stroke-linejoin:round;stroke-miterlimit:4;stroke-dasharray:none;stroke-opacity:1" />
      </g>
      <g
         transform="scale(1.0412029,0.96042759)"
         style="font-style:normal;font-variant:normal;font-weight:normal;font-stretch:normal;font-size:3.91038299px;line-height:0px;font-family:'OCR A Std';-inkscape-font-specification:'OCR A Std';letter-spacing:0px;word-spacing:0px;fill:#000000;fill-opacity:1;stroke:none;stroke-width:0.26458332"
         id="text6167" />
      <g
         transform="matrix(0,-1.0149772,0.98524381,0,0,0)"
         style="font-style:normal;font-variant:normal;font-weight:normal;font-stretch:normal;font-size:4.01142311px;line-height:180.99999428%;font-family:'OCR A Std';-inkscape-font-specification:'OCR A Std';letter-spacing:0px;word-spacing:0px;fill:#000000;fill-opacity:1;stroke:none;stroke-width:0.26458332"
         id="text6167-5" />
      <g
         style="font-style:normal;font-variant:normal;font-weight:normal;font-stretch:normal;font-size:4.07150269px;line-height:0px;font-family:'OCR A Std';-inkscape-font-specification:'OCR A Std';letter-spacing:0px;word-spacing:0px;fill:#000000;fill-opacity:1;stroke:none;stroke-width:0.26458332"
         id="text6248" />
      <g
         transform="matrix(0,-1,1,0,0,0)"
         style="font-style:normal;font-variant:normal;font-weight:normal;font-stretch:normal;font-size:4.07150269px;line-height:0px;font-family:'OCR A Std';-inkscape-font-specification:'OCR A Std';letter-spacing:0px;word-spacing:0px;fill:#000000;fill-opacity:1;stroke:none;stroke-width:0.26458332"
         id="text6248-0">
        <path
           id="path4885"
           style="font-size:4.93888903px;stroke-width:0.26458332"
           d="m -40.582607,13.180064 0.113595,0 1.363133,1.945923 c 0.05433,0.07902 0.118533,0.138289 0.217311,0.138289 0.138289,0 0.251883,-0.09384 0.251883,-0.232128 0,-0.09384 -0.06914,-0.187678 -0.123472,-0.261761 l -1.11125,-1.590323 0.454378,0 c 0.395111,0 0.780344,-0.237066 0.780344,-0.701322 l 0,-0.340783 c 0,-0.439561 -0.390172,-0.716139 -0.780344,-0.716139 l -1.659467,0 0,3.595511 c 0,0.158045 0.06914,0.246945 0.246945,0.246945 0.1778,0 0.246944,-0.0889 0.246944,-0.246945 l 0,-1.837267 z m 0,-1.264355 1.101372,0 c 0.148167,0 0.350662,0.02469 0.350662,0.22225 l 0,0.340783 c 0,0.197556 -0.217312,0.207433 -0.3556,0.207433 l -1.096434,0 0,-0.770466 z m -3.559471,2.854678 0,-1.180395 0.726017,0 c 0.128411,0 0.246944,-0.06914 0.246944,-0.246944 0,-0.1778 -0.118533,-0.246945 -0.246944,-0.246945 l -0.726017,0 0,-1.180394 1.698978,0 c 0.128411,0 0.246944,-0.06914 0.246944,-0.246945 0,-0.1778 -0.118533,-0.246944 -0.246944,-0.246944 l -2.192867,0 0,3.842456 2.192867,0 c 0.128411,0 0.246944,-0.06915 0.246944,-0.246945 0,-0.1778 -0.118533,-0.246944 -0.246944,-0.246944 l -1.698978,0 z m -2.156828,0.493889 c 0.172861,0 0.217311,-0.02963 0.301272,-0.1778 l 0.172861,-0.301273 c 0.06421,-0.108655 0.06914,-0.118533 0.06914,-0.251883 l 0,-2.864556 c 0,-0.158044 -0.06914,-0.246944 -0.246944,-0.246944 -0.1778,0 -0.246945,0.0889 -0.246945,0.246944 l 0,2.864556 -0.13335,0.237067 -0.212372,0 -0.13335,-0.237067 0,-1.55575 c 0,-0.153106 -0.06914,-0.291395 -0.246944,-0.291395 -0.1778,0 -0.246945,0.138289 -0.246945,0.291395 l 0,1.55575 -0.13335,0.237067 -0.212372,0 -0.13335,-0.237067 0,-2.864556 c 0,-0.158044 -0.06914,-0.246944 -0.246944,-0.246944 -0.1778,0 -0.246945,0.0889 -0.246945,0.246944 l 0,2.864556 c 0,0.13335 0.0049,0.143228 0.06914,0.251883 l 0.172861,0.301273 c 0.08396,0.148166 0.128411,0.1778 0.301272,0.1778 l 0.370417,0 c 0.167922,0 0.2667,-0.03457 0.301272,-0.212373 l 0.0099,0 c 0.03457,0.1778 0.13335,0.212373 0.301272,0.212373 l 0.370417,0 z m -3.638496,-3.437467 c -0.118533,-0.232128 -0.321028,-0.404989 -0.597605,-0.404989 -0.276578,0 -0.479073,0.172861 -0.597606,0.404989 l -0.493889,0.982839 c -0.09384,0.192616 -0.128411,0.335844 -0.128411,0.548216 0,0.237067 0.06421,0.385234 0.162983,0.587728 l 0.454378,0.908756 c 0.118534,0.237066 0.316089,0.409928 0.602545,0.409928 0.286455,0 0.484011,-0.172862 0.602544,-0.409928 l 0.454378,-0.908756 c 0.09878,-0.202494 0.162983,-0.350661 0.162983,-0.587728 0,-0.212372 -0.03457,-0.3556 -0.128411,-0.548216 l -0.493889,-0.982839 z m 0.01482,1.131005 c 0.07408,0.143228 0.113594,0.237067 0.113594,0.40005 0,0.128412 -0.02963,0.217312 -0.08396,0.325967 l -0.474133,0.938389 c -0.03457,0.06914 -0.06914,0.148167 -0.167922,0.148167 -0.09878,0 -0.13335,-0.07902 -0.167923,-0.148167 l -0.474133,-0.938389 c -0.05433,-0.108655 -0.08396,-0.197555 -0.08396,-0.325967 0,-0.162983 0.03951,-0.256822 0.113594,-0.40005 l 0.4445,-0.893939 c 0.03951,-0.07902 0.06421,-0.148166 0.167923,-0.148166 0.103716,0 0.128411,0.06914 0.167922,0.148166 l 0.4445,0.893939 z m -4.897915,0.854428 1.081617,0 c 0.2667,0 0.469194,-0.01975 0.661811,-0.237066 0.182739,-0.202495 0.202494,-0.380295 0.202494,-0.632178 l 0,-0.671689 c 0,-0.2667 -0.01975,-0.449439 -0.232128,-0.646995 -0.1778,-0.167922 -0.340783,-0.202494 -0.567972,-0.202494 l -1.639711,0 0,3.595511 c 0,0.158045 0.06914,0.246945 0.246945,0.246945 0.1778,0 0.246944,-0.0889 0.246944,-0.246945 l 0,-1.205089 z m 0,-1.896533 1.096433,0 c 0.291395,0 0.3556,0.07408 0.3556,0.3556 l 0,0.691444 c 0,0.281517 -0.0642,0.3556 -0.3556,0.3556 l -1.096433,0 0,-1.402644 z m -7.118945,1.264355 0.113594,0 1.363134,1.945923 c 0.05433,0.07902 0.118533,0.138289 0.217311,0.138289 0.138289,0 0.251883,-0.09384 0.251883,-0.232128 0,-0.09384 -0.06914,-0.187678 -0.123472,-0.261761 l -1.11125,-1.590323 0.454378,0 c 0.395111,0 0.780344,-0.237066 0.780344,-0.701322 l 0,-0.340783 c 0,-0.439561 -0.390172,-0.716139 -0.780344,-0.716139 l -1.659467,0 0,3.595511 c 0,0.158045 0.06914,0.246945 0.246944,0.246945 0.1778,0 0.246945,-0.0889 0.246945,-0.246945 l 0,-1.837267 z m 0,-1.264355 1.101372,0 c 0.148167,0 0.350661,0.02469 0.350661,0.22225 l 0,0.340783 c 0,0.197556 -0.217311,0.207433 -0.3556,0.207433 l -1.096433,0 0,-0.770466 z m -3.559473,2.854678 0,-1.180395 0.726016,0 c 0.128412,0 0.246945,-0.06914 0.246945,-0.246944 0,-0.1778 -0.118533,-0.246945 -0.246945,-0.246945 l -0.726016,0 0,-1.180394 1.698978,0 c 0.128411,0 0.246944,-0.06914 0.246944,-0.246945 0,-0.1778 -0.118533,-0.246944 -0.246944,-0.246944 l -2.192867,0 0,3.842456 2.192867,0 c 0.128411,0 0.246944,-0.06915 0.246944,-0.246945 0,-0.1778 -0.118533,-0.246944 -0.246944,-0.246944 l -1.698978,0 z m -3.485389,-2.652184 c -0.01976,-0.02963 -0.07408,-0.0889 -0.07408,-0.13335 0,-0.08396 0.113595,-0.06914 0.167922,-0.06914 l 1.047045,0 c 0.153106,0 0.237067,0.02469 0.237067,0.192616 0,0.138289 0.0889,0.232128 0.237066,0.232128 0.1778,0 0.256823,-0.128411 0.256823,-0.286455 0,-0.172861 -0.103717,-0.3556 -0.232128,-0.469195 -0.143228,-0.123472 -0.301272,-0.162983 -0.48895,-0.162983 l -1.047045,0 c -0.158044,0 -0.271639,0 -0.409928,0.0889 -0.167922,0.108655 -0.261761,0.276578 -0.261761,0.474133 0,0.172861 0.05927,0.271639 0.162984,0.404989 l 1.694039,2.17805 c 0.01976,0.02963 0.0889,0.103717 0.0889,0.143228 0,0.07408 -0.123473,0.05927 -0.162984,0.05927 l -1.071739,0 c -0.138289,0 -0.217311,-0.01976 -0.217311,-0.167923 0,-0.13335 -0.0889,-0.251883 -0.232128,-0.251883 -0.172861,0 -0.261761,0.138289 -0.261761,0.296333 0,0.172862 0.09878,0.350662 0.232128,0.459317 0.148167,0.123472 0.31115,0.158045 0.498828,0.158045 l 1.086556,0 c 0.340783,0 0.6223,-0.187678 0.6223,-0.558095 0,-0.167922 -0.07408,-0.281517 -0.172862,-0.409928 L -68.9843,12.11821 Z m -4.127445,2.899128 c -0.03457,0.118533 0.09878,0.246945 0.237066,0.246945 0.153106,0 0.232128,-0.128412 0.2667,-0.246945 l 0.187678,-0.592667 1.051983,0 0.182739,0.592667 c 0.03457,0.118533 0.113595,0.246945 0.2667,0.246945 0.138289,0 0.271639,-0.128412 0.237067,-0.246945 l -0.953206,-3.343628 c -0.03457,-0.128411 -0.09384,-0.251883 -0.256822,-0.251883 -0.158044,0 -0.212372,0.118533 -0.251883,0.251883 l -0.968022,3.343628 z m 1.605138,-1.086555 -0.775405,0 0.385233,-1.338439 0.0099,0 0.380294,1.338439 z m -4.670722,0.839611 0,-3.101623 c 0,-0.158044 -0.06914,-0.246944 -0.246945,-0.246944 -0.1778,0 -0.246944,0.0889 -0.246944,0.246944 l 0,3.595512 2.192866,0 c 0.128412,0 0.246945,-0.06915 0.246945,-0.246945 0,-0.1778 -0.118533,-0.246944 -0.246945,-0.246944 l -1.698977,0 z m 66.033353,60.803903 0,-0.237066 c 0,-0.128412 -0.06914,-0.246945 -0.246944,-0.246945 -0.1778,0 -0.246945,0.118533 -0.246945,0.246945 l 0,0.819855 c 0,0.385233 0.113595,0.607483 0.464256,0.780345 l 0.8988775,0.449438 c 0.1778,0.0889 0.3457222,0.143228 0.5432778,0.143228 0.2271889,0 0.3704167,-0.04939 0.5729111,-0.148166 l 0.8692445,-0.434623 c 0.3358444,-0.167922 0.4938889,-0.360539 0.4938889,-0.745772 l 0,-0.824794 c 0,-0.153106 -0.069145,-0.286456 -0.2469445,-0.286456 -0.1876778,0 -0.2469444,0.138289 -0.2469444,0.301272 l 0,0.182739 -2.8546779,0 z m 2.8546779,0.493889 0,0.05927 c 0,0.227189 0.00494,0.271639 -0.2074334,0.375355 l -0.8346722,0.409928 c -0.1432278,0.06915 -0.2370667,0.123472 -0.4049889,0.123472 -0.1234722,0 -0.2074333,-0.03951 -0.3210278,-0.09384 L -9.9365466,76.50774 C -10.119286,76.41884 -10.14398,76.369451 -10.14398,76.162018 l 0,-0.09384 2.8546779,0 z m -2.8546779,-4.043482 1.1803945,0 0,0.726017 c 0,0.128411 0.069144,0.246944 0.2469445,0.246944 0.1778,0 0.2469444,-0.118533 0.2469444,-0.246944 l 0,-0.726017 1.1803945,0 0,1.698978 c 0,0.128411 0.069144,0.246944 0.2469444,0.246944 0.1778,0 0.2469445,-0.118533 0.2469445,-0.246944 l 0,-2.192867 -3.8424558,0 0,2.192867 c 0,0.128411 0.06915,0.246944 0.246945,0.246944 0.1778,0 0.246944,-0.118533 0.246944,-0.246944 l 0,-1.698978 z m 0,-3.559473 1.1803945,0 0,0.726016 c 0,0.128412 0.069144,0.246945 0.2469445,0.246945 0.1778,0 0.2469444,-0.118533 0.2469444,-0.246945 l 0,-0.726016 1.1803945,0 0,1.698978 c 0,0.128411 0.069144,0.246944 0.2469444,0.246944 0.1778,0 0.2469445,-0.118533 0.2469445,-0.246944 l 0,-2.192867 -3.8424558,0 0,2.192867 c 0,0.128411 0.06915,0.246944 0.246945,0.246944 0.1778,0 0.246944,-0.118533 0.246944,-0.246944 l 0,-1.698978 z m 0.9581445,-3.559473 0,1.081616 c 0,0.2667 0.019756,0.469195 0.2370667,0.661812 0.2024944,0.182738 0.3802944,0.202494 0.6321778,0.202494 l 0.6716889,0 c 0.2667,0 0.4494389,-0.01976 0.6469944,-0.232128 0.1679223,-0.1778 0.2024945,-0.340783 0.2024945,-0.567972 l 0,-1.639711 -3.5955108,0 c -0.158045,0 -0.246945,0.06914 -0.246945,0.246944 0,0.1778 0.0889,0.246945 0.246945,0.246945 l 1.2050885,0 z m 1.8965334,0 0,1.096433 c 0,0.291395 -0.074083,0.3556 -0.3556,0.3556 l -0.6914445,0 c -0.2815167,0 -0.3556,-0.06421 -0.3556,-0.3556 l 0,-1.096433 1.4026445,0 z m -0.2024945,-3.48539 c 0.029633,-0.01976 0.0889,-0.07408 0.13335,-0.07408 0.083961,0 0.069145,0.113594 0.069145,0.167922 l 0,1.047044 c 0,0.153106 -0.024695,0.237067 -0.1926167,0.237067 -0.1382889,0 -0.2321278,0.0889 -0.2321278,0.237067 0,0.1778 0.1284111,0.256822 0.2864556,0.256822 0.1728611,0 0.3556,-0.103717 0.4691944,-0.232128 0.1234718,-0.143231 0.1629829,-0.301275 0.1629829,-0.488953 l 0,-1.047044 c 0,-0.158045 0,-0.271639 -0.0889,-0.409928 -0.1086556,-0.167922 -0.2765778,-0.261761 -0.4741334,-0.261761 -0.1728611,0 -0.2716389,0.05927 -0.4049889,0.162983 l -2.17805,1.694039 c -0.029633,0.01976 -0.1037165,0.0889 -0.1432275,0.0889 -0.07408,0 -0.05927,-0.123472 -0.05927,-0.162983 l 0,-1.071739 c 0,-0.138289 0.01976,-0.217311 0.1679222,-0.217311 0.1333501,0 0.2518834,-0.0889 0.2518834,-0.232128 0,-0.172861 -0.1382889,-0.261761 -0.2963336,-0.261761 -0.172861,0 -0.350661,0.09878 -0.459316,0.232128 -0.123473,0.148166 -0.158045,0.31115 -0.158045,0.498827 l 0,1.086556 c 0,0.340783 0.187678,0.6223 0.558095,0.6223 0.1679218,0 0.2815163,-0.07408 0.4099274,-0.172861 l 2.17805,-1.698978 z m -1.0618611,-7.193028 0,0.113594 -1.9459223,1.363133 c -0.07902,0.05433 -0.138289,0.118534 -0.138289,0.217312 0,0.138288 0.09384,0.251883 0.232128,0.251883 0.09384,0 0.187678,-0.06914 0.261761,-0.123472 l 1.5903223,-1.11125 0,0.454377 c 0,0.395112 0.2370667,0.780345 0.7013222,0.780345 l 0.3407834,0 c 0.4395611,0 0.7161389,-0.390172 0.7161389,-0.780345 l 0,-1.659466 -3.5955108,0 c -0.158045,0 -0.246945,0.06914 -0.246945,0.246944 0,0.1778 0.0889,0.246945 0.246945,0.246945 l 1.8372663,0 z m 1.2643556,0 0,1.101372 c 0,0.148167 -0.024695,0.350661 -0.22225,0.350661 l -0.3407834,0 c -0.1975555,0 -0.2074333,-0.217311 -0.2074333,-0.3556 l 0,-1.096433 0.7704667,0 z m -2.8546779,-3.559473 1.1803945,0 0,0.726016 c 0,0.128411 0.069144,0.246945 0.2469445,0.246945 0.1778,0 0.2469444,-0.118534 0.2469444,-0.246945 l 0,-0.726016 1.1803945,0 0,1.698977 c 0,0.128412 0.069144,0.246945 0.2469444,0.246945 0.1778,0 0.2469445,-0.118533 0.2469445,-0.246945 l 0,-2.192866 -3.8424558,0 0,2.192866 c 0,0.128412 0.06915,0.246945 0.246945,0.246945 0.1778,0 0.246944,-0.118533 0.246944,-0.246945 l 0,-1.698977 z m 2.6521834,-3.48539 c 0.029633,-0.01976 0.0889,-0.07408 0.13335,-0.07408 0.083961,0 0.069145,0.113594 0.069145,0.167922 l 0,1.047045 c 0,0.153105 -0.024695,0.237066 -0.1926167,0.237066 -0.1382889,0 -0.2321278,0.0889 -0.2321278,0.237067 0,0.1778 0.1284111,0.256822 0.2864556,0.256822 0.1728611,0 0.3556,-0.103716 0.4691944,-0.232128 0.1234723,-0.143227 0.1629834,-0.301272 0.1629834,-0.48895 l 0,-1.047044 c 0,-0.158044 0,-0.271639 -0.0889,-0.409928 -0.1086556,-0.167922 -0.2765778,-0.261761 -0.4741334,-0.261761 -0.1728611,0 -0.2716389,0.05927 -0.4049889,0.162983 l -2.17805,1.694039 c -0.029633,0.01976 -0.103717,0.0889 -0.143228,0.0889 -0.07408,0 -0.05927,-0.123472 -0.05927,-0.162983 l 0,-1.071739 c 0,-0.138289 0.01976,-0.217311 0.1679227,-0.217311 0.1333501,0 0.2518834,-0.0889 0.2518834,-0.232128 0,-0.172861 -0.1382889,-0.261761 -0.2963341,-0.261761 -0.172861,0 -0.350661,0.09878 -0.459316,0.232128 -0.123473,0.148167 -0.158044,0.31115 -0.158044,0.498828 l 0,1.086555 c 0,0.340784 0.187678,0.6223 0.558095,0.6223 0.1679213,0 0.2815158,-0.07408 0.4099269,-0.172861 l 2.17805,-1.698978 z m -2.8991274,-4.127445 c -0.118534,-0.03457 -0.246945,0.09878 -0.246945,0.237067 0,0.153106 0.128411,0.232128 0.246945,0.2667 l 0.5926663,0.187678 0,1.051983 -0.5926663,0.182739 c -0.118534,0.03457 -0.246945,0.113594 -0.246945,0.2667 0,0.138289 0.128411,0.271639 0.246945,0.237067 l 3.3436274,-0.953206 c 0.1284112,-0.03457 0.2518834,-0.09384 0.2518834,-0.256822 0,-0.158045 -0.1185334,-0.212372 -0.2518834,-0.251883 l -3.3436274,-0.968023 z m 1.0865552,1.605139 0,-0.775405 1.3384389,0.385233 0,0.0099 -1.3384389,0.380294 z m -0.8396112,-4.670723 3.1016223,0 c 0.1580445,0 0.2469445,-0.06914 0.2469445,-0.246944 0,-0.1778 -0.0889,-0.246945 -0.2469445,-0.246945 l -3.5955113,0 0,2.192867 c 0,0.128411 0.06915,0.246945 0.246945,0.246945 0.1778,0 0.246944,-0.118534 0.246944,-0.246945 l 0,-1.698978 z m -4.448713,49.301113 c -0.223933,0 -0.407151,0.177851 -0.407151,0.395224 l 0,2.284388 c 0,0.221325 0.175076,0.395223 0.407151,0.395223 l 1.197022,0 c 0.232075,0 0.40715,-0.173898 0.40715,-0.395223 l 0,-2.284388 c 0,-0.217373 -0.183218,-0.395224 -0.40715,-0.395224 l -1.197022,0 z m 0,2.679612 0,-2.284388 1.197022,0 0,2.284388 -1.197022,0 z m -2.531265,-2.284388 0.997517,0 c 0.105859,0 0.203575,-0.05533 0.203575,-0.197612 0,-0.142281 -0.09771,-0.197612 -0.203575,-0.197612 l -1.404668,0 0,1.735029 1.201093,0 0,0.944583 -0.940517,0 c -0.06514,0 -0.158788,-0.05533 -0.21579,-0.07905 l -0.122145,-0.05138 c -0.04479,-0.01976 -0.08143,-0.03162 -0.130288,-0.03162 -0.105859,0 -0.195432,0.09485 -0.195432,0.197611 0,0.138328 0.122145,0.173899 0.232075,0.221325 l 0.154718,0.06718 c 0.101787,0.04348 0.162859,0.07114 0.268719,0.07114 l 0.903873,0 c 0.146575,0 0.252434,-0.01581 0.354221,-0.134376 0.0855,-0.0988 0.09771,-0.185755 0.09771,-0.308274 l 0,-0.845777 c 0,-0.138328 -0.01221,-0.233181 -0.126216,-0.335939 -0.09771,-0.0909 -0.195432,-0.110663 -0.325721,-0.110663 l -0.749156,0 0,-0.944582 z m -3.337424,1.339805 1.148163,0 c 0.13436,0 0.228005,-0.01976 0.329792,-0.110663 0.114002,-0.102758 0.126216,-0.209467 0.126216,-0.351747 l 0,-0.810208 c 0,-0.14228 -0.01221,-0.248991 -0.126216,-0.351749 -0.101787,-0.0909 -0.195432,-0.110662 -0.329792,-0.110662 l -1.351739,0 c -0.105859,0 -0.203575,0.05533 -0.203575,0.197612 0,0.14228 0.09771,0.197612 0.203575,0.197612 l 1.400597,0 0,0.944582 -1.144092,0 c -0.305363,0 -0.46008,0.150185 -0.46008,0.446602 l 0,1.288427 1.807747,0 c 0.105859,0 0.203575,-0.05533 0.203575,-0.197611 0,-0.142281 -0.09771,-0.197612 -0.203575,-0.197612 l -1.400596,0 0,-0.944583 z m 5.868689,-8.888564 c -0.223933,0 -0.407151,0.17785 -0.407151,0.395222 l 0,2.28439 c 0,0.221324 0.175076,0.395222 0.407151,0.395222 l 1.197022,0 c 0.232075,0 0.40715,-0.173898 0.40715,-0.395222 l 0,-2.28439 c 0,-0.217372 -0.183218,-0.395222 -0.40715,-0.395222 l -1.197022,0 z m 0,2.679612 0,-2.28439 1.197022,0 0,2.28439 -1.197022,0 z m -2.934344,-2.679612 c -0.223934,0 -0.407151,0.17785 -0.407151,0.395222 l 0,2.28439 c 0,0.221324 0.175075,0.395222 0.407151,0.395222 l 1.197021,0 c 0.232076,0 0.40715,-0.173898 0.40715,-0.395222 l 0,-2.28439 c 0,-0.217372 -0.183217,-0.395222 -0.40715,-0.395222 l -1.197021,0 z m 0,2.679612 0,-2.28439 1.197021,0 0,2.28439 -1.197021,0 z m -2.934345,-0.944583 1.148163,0 c 0.13436,0 0.228005,-0.01976 0.329792,-0.110663 0.114002,-0.102758 0.126216,-0.209468 0.126216,-0.351749 l 0,-0.810207 c 0,-0.14228 -0.01221,-0.24899 -0.126216,-0.351748 -0.101787,-0.0909 -0.195432,-0.110662 -0.329792,-0.110662 l -1.351739,0 c -0.105859,0 -0.203575,0.05533 -0.203575,0.197611 0,0.14228 0.09771,0.197611 0.203575,0.197611 l 1.400597,0 0,0.944583 -1.144092,0 c -0.305363,0 -0.46008,0.150185 -0.46008,0.446602 l 0,1.288427 1.807747,0 c 0.105859,0 0.203575,-0.05533 0.203575,-0.197611 0,-0.14228 -0.09771,-0.197611 -0.203575,-0.197611 l -1.400596,0 0,-0.944583 z m 5.868689,-8.888565 c -0.223933,0 -0.407151,0.17785 -0.407151,0.395223 l 0,2.284389 c 0,0.221325 0.175076,0.395222 0.407151,0.395222 l 1.197022,0 c 0.232075,0 0.40715,-0.173897 0.40715,-0.395222 l 0,-2.284389 c 0,-0.217373 -0.183218,-0.395223 -0.40715,-0.395223 l -1.197022,0 z m 0,2.679612 0,-2.284389 1.197022,0 0,2.284389 -1.197022,0 z m -2.531265,-2.284389 0.997517,0 c 0.105859,0 0.203575,-0.05533 0.203575,-0.197612 0,-0.14228 -0.09771,-0.197611 -0.203575,-0.197611 l -1.404668,0 0,1.735029 1.201093,0 0,0.944583 -0.940517,0 c -0.06514,0 -0.158788,-0.05533 -0.21579,-0.07905 l -0.122145,-0.05138 c -0.04479,-0.01976 -0.08143,-0.03162 -0.130288,-0.03162 -0.105859,0 -0.195432,0.09485 -0.195432,0.197611 0,0.138328 0.122145,0.173898 0.232075,0.221325 l 0.154718,0.06718 c 0.101787,0.04348 0.162859,0.07113 0.268719,0.07113 l 0.903873,0 c 0.146575,0 0.252434,-0.01581 0.354221,-0.134375 0.0855,-0.0988 0.09771,-0.185755 0.09771,-0.308274 l 0,-0.845777 c 0,-0.138328 -0.01221,-0.233181 -0.126216,-0.335939 -0.09771,-0.0909 -0.195432,-0.110663 -0.325721,-0.110663 l -0.749156,0 0,-0.944583 z m -2.535338,2.284389 0,-2.679612 -1.005662,0 c -0.105859,0 -0.203575,0.05533 -0.203575,0.197611 0,0.142281 0.09771,0.197612 0.203575,0.197612 l 0.598512,0 0,2.284389 -0.598512,0 c -0.105859,0 -0.203575,0.05533 -0.203575,0.197611 0,0.142281 0.09771,0.197611 0.203575,0.197611 l 1.604172,0 c 0.105859,0 0.203575,-0.05533 0.203575,-0.197611 l 0,-0.995961 c 0,-0.114616 -0.05293,-0.197612 -0.203575,-0.197612 -0.150646,0 -0.203575,0.083 -0.203575,0.197612 l 0,0.79835 -0.394935,0 z m 5.469682,-9.437925 0.997518,0 c 0.105859,0 0.203575,-0.05533 0.203575,-0.197611 0,-0.14228 -0.09771,-0.197611 -0.203575,-0.197611 l -1.404669,0 0,1.735028 1.201094,0 0,0.944583 -0.940518,0 c -0.06514,0 -0.158788,-0.05533 -0.215789,-0.07905 l -0.122145,-0.05138 c -0.04478,-0.01976 -0.08143,-0.03162 -0.130288,-0.03162 -0.105859,0 -0.195433,0.09485 -0.195433,0.197612 0,0.138328 0.122146,0.173898 0.232077,0.221325 l 0.154717,0.06718 c 0.101787,0.04348 0.16286,0.07114 0.268719,0.07114 l 0.903873,0 c 0.146575,0 0.252434,-0.01581 0.354221,-0.134376 0.0855,-0.0988 0.09771,-0.185754 0.09771,-0.308274 l 0,-0.845777 c 0,-0.138328 -0.01221,-0.233181 -0.126217,-0.335939 -0.09771,-0.0909 -0.195431,-0.110663 -0.32572,-0.110663 l -0.749156,0 0,-0.944583 z m -3.337423,1.339806 1.148163,0 c 0.13436,0 0.228005,-0.01976 0.329792,-0.110662 0.114002,-0.102758 0.126216,-0.209469 0.126216,-0.351749 l 0,-0.810207 c 0,-0.14228 -0.01221,-0.24899 -0.126216,-0.351748 -0.101787,-0.0909 -0.195432,-0.110662 -0.329792,-0.110662 l -1.351739,0 c -0.105859,0 -0.203575,0.05533 -0.203575,0.197611 0,0.14228 0.09771,0.197611 0.203575,0.197611 l 1.400597,0 0,0.944583 -1.144092,0 c -0.305363,0 -0.46008,0.150185 -0.46008,0.446602 l 0,1.288427 1.807747,0 c 0.105859,0 0.203575,-0.05533 0.203575,-0.197611 0,-0.142281 -0.09771,-0.197612 -0.203575,-0.197612 l -1.400596,0 0,-0.944583 z m -2.132259,0.944583 0,-2.679611 -1.005662,0 c -0.105859,0 -0.203575,0.05533 -0.203575,0.197611 0,0.14228 0.09771,0.197611 0.203575,0.197611 l 0.598512,0 0,2.284389 -0.598512,0 c -0.105859,0 -0.203575,0.05533 -0.203575,0.197612 0,0.14228 0.09771,0.197611 0.203575,0.197611 l 1.604172,0 c 0.105859,0 0.203575,-0.05533 0.203575,-0.197611 l 0,-0.995962 c 0,-0.114615 -0.05293,-0.197612 -0.203575,-0.197612 -0.150646,0 -0.203575,0.083 -0.203575,0.197612 l 0,0.79835 -0.394935,0 z m 5.066603,-9.833148 c -0.223933,0 -0.407151,0.177851 -0.407151,0.395223 l 0,2.284389 c 0,0.221326 0.175076,0.395223 0.407151,0.395223 l 1.197022,0 c 0.232075,0 0.40715,-0.173897 0.40715,-0.395223 l 0,-2.284389 c 0,-0.217372 -0.183218,-0.395223 -0.40715,-0.395223 l -1.197022,0 z m 0,2.679612 0,-2.284389 1.197022,0 0,2.284389 -1.197022,0 z m -2.934344,-2.679612 c -0.223934,0 -0.407151,0.177851 -0.407151,0.395223 l 0,2.284389 c 0,0.221326 0.175075,0.395223 0.407151,0.395223 l 1.197021,0 c 0.232076,0 0.40715,-0.173897 0.40715,-0.395223 l 0,-2.284389 c 0,-0.217372 -0.183217,-0.395223 -0.40715,-0.395223 l -1.197021,0 z m 0,2.679612 0,-2.284389 1.197021,0 0,2.284389 -1.197021,0 z m -2.132259,0 0,-2.679612 -1.005662,0 c -0.105859,0 -0.203575,0.05533 -0.203575,0.197612 0,0.14228 0.09771,0.197611 0.203575,0.197611 l 0.598512,0 0,2.284389 -0.598512,0 c -0.105859,0 -0.203575,0.05533 -0.203575,0.197612 0,0.14228 0.09771,0.197611 0.203575,0.197611 l 1.604172,0 c 0.105859,0 0.203575,-0.05533 0.203575,-0.197611 l 0,-0.995963 c 0,-0.114614 -0.05293,-0.197611 -0.203575,-0.197611 -0.150646,0 -0.203575,0.083 -0.203575,0.197611 l 0,0.798351 -0.394935,0 z m 2.535338,-9.437924 0.997517,0 c 0.105859,0 0.203575,-0.05533 0.203575,-0.197611 0,-0.142281 -0.09771,-0.197613 -0.203575,-0.197613 l -1.404668,0 0,1.73503 1.201093,0 0,0.944582 -0.940517,0 c -0.06514,0 -0.158788,-0.05533 -0.21579,-0.07905 l -0.122145,-0.05138 c -0.04479,-0.01976 -0.08143,-0.03162 -0.130288,-0.03162 -0.105859,0 -0.195432,0.09485 -0.195432,0.197612 0,0.138328 0.122145,0.173898 0.232075,0.221325 l 0.154718,0.06718 c 0.101787,0.04348 0.162859,0.07114 0.268719,0.07114 l 0.903873,0 c 0.146575,0 0.252434,-0.01581 0.354221,-0.134376 0.0855,-0.09881 0.09771,-0.185755 0.09771,-0.308274 l 0,-0.845777 c 0,-0.138328 -0.01221,-0.233182 -0.126216,-0.33594 -0.09771,-0.0909 -0.195432,-0.110662 -0.325721,-0.110662 l -0.749156,0 0,-0.944583 z m -2.140403,0 0,0.545407 c 0,0.173899 0.0081,0.169946 -0.126216,0.284561 l -0.561868,0.470315 c -0.101787,0.08695 -0.105859,0.09881 -0.105859,0.22923 l 0,0.952488 c 0,0.12647 0.057,0.197611 0.203576,0.197611 0.146574,0 0.203575,-0.07114 0.203575,-0.197611 l 0,-0.766734 c 0,-0.138327 0.0081,-0.146232 0.114002,-0.237133 l 0.57001,-0.47822 c 0.114002,-0.09485 0.10993,-0.110662 0.10993,-0.248991 l 0,-1.146147 -1.807747,0 c -0.130288,0 -0.203575,0.110663 -0.203575,0.197613 l 0,0.197611 c 0,0.08695 0.07329,0.197611 0.203575,0.197611 0.130288,0 0.203576,-0.110662 0.203576,-0.197611 l 1.197021,0 z m 1.737324,-7.548759 c -0.223934,0 -0.407151,0.177851 -0.407151,0.395223 l 0,2.284389 c 0,0.221324 0.175075,0.395223 0.407151,0.395223 l 1.197021,0 c 0.232076,0 0.40715,-0.173899 0.40715,-0.395223 l 0,-2.284389 c 0,-0.217372 -0.183217,-0.395223 -0.40715,-0.395223 l -1.197021,0 z m 0,2.679612 0,-2.284389 1.197021,0 0,2.284389 -1.197021,0 z m -2.531267,-2.284389 0.997518,0 c 0.105859,0 0.203575,-0.05533 0.203575,-0.197611 0,-0.14228 -0.09771,-0.197612 -0.203575,-0.197612 l -1.404668,0 0,1.735029 1.201093,0 0,0.944583 -0.940517,0 c -0.06514,0 -0.158788,-0.05533 -0.215789,-0.07905 l -0.122146,-0.05138 c -0.04479,-0.01976 -0.08143,-0.03162 -0.130287,-0.03162 -0.105859,0 -0.195433,0.09485 -0.195433,0.197612 0,0.138328 0.122145,0.173898 0.232075,0.221325 l 0.154717,0.06718 c 0.101788,0.04348 0.162861,0.07114 0.26872,0.07114 l 0.903873,0 c 0.146575,0 0.252434,-0.01581 0.354221,-0.134376 0.0855,-0.09881 0.09771,-0.185754 0.09771,-0.308273 l 0,-0.845778 c 0,-0.138328 -0.01221,-0.233182 -0.126216,-0.33594 -0.09771,-0.0909 -0.195432,-0.110662 -0.325721,-0.110662 l -0.749156,0 0,-0.944583 z m 2.934346,-7.153535 0.997517,0 c 0.105859,0 0.203575,-0.05533 0.203575,-0.197612 0,-0.142281 -0.09771,-0.197612 -0.203575,-0.197612 l -1.404668,0 0,1.735029 1.201093,0 0,0.944583 -0.940517,0 c -0.06514,0 -0.158788,-0.05533 -0.21579,-0.07905 l -0.122145,-0.05138 c -0.04479,-0.01976 -0.08143,-0.03162 -0.130288,-0.03162 -0.105859,0 -0.195432,0.09485 -0.195432,0.197611 0,0.138329 0.122145,0.173899 0.232075,0.221326 l 0.154718,0.06718 c 0.101787,0.04348 0.162859,0.07113 0.268719,0.07113 l 0.903873,0 c 0.146575,0 0.252434,-0.0158 0.354221,-0.134375 0.0855,-0.09881 0.09771,-0.185755 0.09771,-0.308274 l 0,-0.845777 c 0,-0.138328 -0.01221,-0.233182 -0.126216,-0.33594 -0.09771,-0.0909 -0.195432,-0.110662 -0.325721,-0.110662 l -0.749156,0 0,-0.944583 z m -3.337424,1.339805 1.148163,0 c 0.13436,0 0.228005,-0.01976 0.329792,-0.110662 0.114002,-0.102758 0.126216,-0.209468 0.126216,-0.351748 l 0,-0.810207 c 0,-0.14228 -0.01221,-0.248991 -0.126216,-0.351749 -0.101787,-0.0909 -0.195432,-0.110663 -0.329792,-0.110663 l -1.351739,0 c -0.105859,0 -0.203575,0.05533 -0.203575,0.197612 0,0.142281 0.09771,0.197612 0.203575,0.197612 l 1.400597,0 0,0.944583 -1.144092,0 c -0.305363,0 -0.46008,0.150184 -0.46008,0.446602 l 0,1.288426 1.807747,0 c 0.105859,0 0.203575,-0.05533 0.203575,-0.197612 0,-0.14228 -0.09771,-0.197611 -0.203575,-0.197611 l -1.400596,0 0,-0.944583 z m 2.934345,-8.888564 c -0.223934,0 -0.407151,0.17785 -0.407151,0.395223 l 0,2.284389 c 0,0.221324 0.175075,0.395223 0.407151,0.395223 l 1.197021,0 c 0.232076,0 0.40715,-0.173899 0.40715,-0.395223 l 0,-2.284389 c 0,-0.217373 -0.183217,-0.395223 -0.40715,-0.395223 l -1.197021,0 z m 0,2.679612 0,-2.284389 1.197021,0 0,2.284389 -1.197021,0 z m -2.132259,0 0,-2.679612 -1.005662,0 c -0.105859,0 -0.203575,0.05533 -0.203575,0.197611 0,0.14228 0.09771,0.197612 0.203575,0.197612 l 0.598512,0 0,2.284389 -0.598512,0 c -0.105859,0 -0.203575,0.05533 -0.203575,0.197611 0,0.14228 0.09771,0.197612 0.203575,0.197612 l 1.604172,0 c 0.105859,0 0.203575,-0.05533 0.203575,-0.197612 l 0,-0.995962 c 0,-0.114614 -0.05293,-0.197611 -0.203575,-0.197611 -0.150646,0 -0.203575,0.083 -0.203575,0.197611 l 0,0.798351 -0.394935,0 z m -0.399008,-9.437925 0.997518,0 c 0.105859,0 0.203575,-0.05533 0.203575,-0.197612 0,-0.14228 -0.09771,-0.197611 -0.203575,-0.197611 l -1.404668,0 0,1.735029 1.201093,0 0,0.944583 -0.940517,0 c -0.06514,0 -0.158788,-0.05533 -0.215789,-0.07905 l -0.122146,-0.05138 c -0.04479,-0.01976 -0.08143,-0.03162 -0.130287,-0.03162 -0.105859,0 -0.195433,0.09485 -0.195433,0.197611 0,0.138328 0.122145,0.173898 0.232075,0.221324 l 0.154717,0.06718 c 0.101788,0.04348 0.162861,0.07115 0.26872,0.07115 l 0.903873,0 c 0.146575,0 0.252434,-0.0158 0.354221,-0.134376 0.0855,-0.09881 0.09771,-0.185755 0.09771,-0.308274 l 0,-0.845777 c 0,-0.138328 -0.01221,-0.233182 -0.126216,-0.33594 -0.09771,-0.0909 -0.195432,-0.110662 -0.325721,-0.110662 l -0.749156,0 0,-0.944583 z M -90.959635,20.98449 c 0,-0.223933 -0.169003,-0.40715 -0.375563,-0.40715 l -2.170761,0 c -0.210315,0 -0.375563,0.175074 -0.375563,0.40715 l 0,1.197021 c 0,0.232075 0.165248,0.407151 0.375563,0.407151 l 2.170761,0 c 0.20656,0 0.375563,-0.183219 0.375563,-0.407151 l 0,-1.197021 z m -2.546324,0 2.170761,0 0,1.197021 -2.170761,0 0,-1.197021 z m 2.546324,-2.934344 c 0,-0.223933 -0.169003,-0.407151 -0.375563,-0.407151 l -2.170761,0 c -0.210315,0 -0.375563,0.175075 -0.375563,0.407151 l 0,1.197021 c 0,0.232075 0.165248,0.407151 0.375563,0.407151 l 2.170761,0 c 0.20656,0 0.375563,-0.183219 0.375563,-0.407151 l 0,-1.197021 z m -2.546324,0 2.170761,0 0,1.197021 -2.170761,0 0,-1.197021 z m 0,-2.132259 2.546324,0 0,-1.005661 c 0,-0.10586 -0.05257,-0.203575 -0.187781,-0.203575 -0.135204,0 -0.187782,0.09772 -0.187782,0.203575 l 0,0.598511 -2.170761,0 0,-0.598511 c 0,-0.10586 -0.05257,-0.203575 -0.187781,-0.203575 -0.135204,0 -0.187782,0.09772 -0.187782,0.203575 l 0,1.604172 c 0,0.105859 0.05257,0.203574 0.187782,0.203574 l 0.946421,0 c 0.108914,0 0.187782,-0.05293 0.187782,-0.203574 0,-0.150646 -0.07887,-0.203575 -0.187782,-0.203575 l -0.75864,0 0,-0.394936 z m 9.322674,5.066603 c 0,-0.223933 -0.169003,-0.40715 -0.375564,-0.40715 l -2.170759,0 c -0.210316,0 -0.375565,0.175074 -0.375565,0.40715 l 0,1.197022 c 0,0.232074 0.165249,0.40715 0.375565,0.40715 l 2.170759,0 c 0.206561,0 0.375564,-0.183218 0.375564,-0.40715 l 0,-1.197022 z m -2.546323,0 2.170759,0 0,1.197022 -2.170759,0 0,-1.197022 z m 0,-1.737323 c 0,-0.118074 -0.07511,-0.203575 -0.187782,-0.203575 -0.101403,0 -0.187783,0.08143 -0.187783,0.203575 l 0,0.203576 c 0,0.122144 0.08638,0.203575 0.187783,0.203575 l 2.546323,0 c 0.09765,0 0.187782,-0.08957 0.187782,-0.203575 l 0,-1.604172 c 0,-0.114003 -0.09014,-0.203576 -0.187782,-0.203576 l -0.961443,0 c -0.09765,0 -0.187782,0.08957 -0.187782,0.203576 l 0,1.400596 -1.209316,0 z m 1.584879,-1.197021 0.58588,0 0,1.197021 -0.58588,0 0,-1.197021 z m 7.737795,2.934344 c 0,-0.223933 -0.169004,-0.40715 -0.375565,-0.40715 l -2.170759,0 c -0.210316,0 -0.375564,0.175074 -0.375564,0.40715 l 0,1.197022 c 0,0.232074 0.165248,0.40715 0.375564,0.40715 l 2.170759,0 c 0.206561,0 0.375565,-0.183218 0.375565,-0.40715 l 0,-1.197022 z m -2.546324,0 2.170759,0 0,1.197022 -2.170759,0 0,-1.197022 z m 1.273162,-2.527194 0.897597,0 0,0.382721 -0.897597,0 0,-0.382721 z m 1.273162,-0.203575 c 0,-0.138431 -0.09014,-0.203575 -0.187782,-0.203575 l -1.08538,0 c 0,-0.126217 -0.04131,-0.223933 -0.105158,-0.29722 -0.06385,-0.07329 -0.157737,-0.109931 -0.274162,-0.109931 l -0.893842,0 c -0.229094,0 -0.375564,0.154717 -0.375564,0.407151 l 0,1.197021 c 0,0.252433 0.14647,0.407151 0.375564,0.407151 l 0.893842,0 c 0.116425,0 0.210316,-0.03664 0.274162,-0.109932 0.06385,-0.07329 0.105158,-0.171003 0.105158,-0.297219 l 1.08538,0 c 0.09765,0 0.187782,-0.06515 0.187782,-0.203575 l 0,-0.789871 z m -2.546324,-0.203575 0.897598,0 0,1.197021 -0.897598,0 0,-1.197021 z m 9.322674,2.934344 c 0,-0.223933 -0.169004,-0.40715 -0.375564,-0.40715 l -2.170761,0 c -0.210315,0 -0.375563,0.175074 -0.375563,0.40715 l 0,1.197022 c 0,0.232074 0.165248,0.40715 0.375563,0.40715 l 2.170761,0 c 0.20656,0 0.375564,-0.183218 0.375564,-0.40715 l 0,-1.197022 z m -2.546325,0 2.170761,0 0,1.197022 -2.170761,0 0,-1.197022 z m 2.170761,-1.737323 -0.518279,0 c -0.165248,0 -0.161493,0.0081 -0.270406,-0.126217 l -0.446921,-0.561866 c -0.08262,-0.101788 -0.09389,-0.10586 -0.217827,-0.10586 l -0.905109,0 c -0.120181,0 -0.187782,0.05701 -0.187782,0.203575 0,0.146575 0.0676,0.203575 0.187782,0.203575 l 0.728594,0 c 0.131447,0 0.138959,0.0081 0.225339,0.114003 l 0.454432,0.570009 c 0.09014,0.114003 0.105158,0.109932 0.236605,0.109932 l 1.089136,0 0,-1.807747 c 0,-0.130289 -0.105159,-0.203576 -0.187782,-0.203576 l -0.187782,0 c -0.08263,0 -0.187782,0.07329 -0.187782,0.203576 0,0.130287 0.105157,0.203575 0.187782,0.203575 l 0,1.197021 z m 7.151913,1.737323 c 0,-0.223933 -0.169003,-0.40715 -0.375563,-0.40715 l -2.17076,0 c -0.210316,0 -0.375565,0.175074 -0.375565,0.40715 l 0,1.197022 c 0,0.232074 0.165249,0.40715 0.375565,0.40715 l 2.17076,0 c 0.20656,0 0.375563,-0.183218 0.375563,-0.40715 l 0,-1.197022 z m -2.546323,0 2.17076,0 0,1.197022 -2.17076,0 0,-1.197022 z m 2.17076,-2.934344 c 0,0.118073 0.07511,0.203575 0.187781,0.203575 0.09765,0 0.187782,-0.0855 0.187782,-0.191361 l 0,-0.24429 c 0,-0.142502 -0.101402,-0.175075 -0.187782,-0.175075 l -2.497499,0 c -0.17276,0 -0.236607,0.07329 -0.236607,0.264647 l 0,1.482028 c 0,0.183217 0.06009,0.264648 0.236607,0.264648 l 0.841262,0 c 0.17276,0 0.251628,-0.04071 0.251628,-0.244291 l 0,-1.359881 1.216828,0 z m -1.592391,1.197021 -0.578369,0 0,-1.197021 0.578369,0 0,1.197021 z m 8.744305,1.737323 c 0,-0.223933 -0.169004,-0.40715 -0.375565,-0.40715 l -2.170759,0 c -0.210316,0 -0.375564,0.175074 -0.375564,0.40715 l 0,1.197022 c 0,0.232074 0.165248,0.40715 0.375564,0.40715 l 2.170759,0 c 0.206561,0 0.375565,-0.183218 0.375565,-0.40715 l 0,-1.197022 z m -2.546324,0 2.170759,0 0,1.197022 -2.170759,0 0,-1.197022 z m 2.170759,-2.531266 0,0.997519 c 0,0.105858 0.05258,0.203575 0.187783,0.203575 0.135202,0 0.187782,-0.09772 0.187782,-0.203575 l 0,-1.40467 -1.648726,0 0,1.201094 -0.897598,0 0,-0.940517 c 0,-0.06515 0.05258,-0.158789 0.07512,-0.215789 l 0.04882,-0.122146 c 0.01878,-0.04478 0.03004,-0.08143 0.03004,-0.130288 0,-0.105859 -0.09014,-0.195432 -0.187782,-0.195432 -0.131448,0 -0.165249,0.122145 -0.210317,0.232075 l -0.06385,0.154718 c -0.04131,0.101788 -0.0676,0.16286 -0.0676,0.268719 l 0,0.903873 c 0,0.146575 0.01502,0.252434 0.127691,0.354221 0.09389,0.0855 0.176515,0.09772 0.29294,0.09772 l 0.803707,0 c 0.131447,0 0.221582,-0.01221 0.319229,-0.126217 0.08638,-0.09772 0.105158,-0.195433 0.105158,-0.325721 l 0,-0.749156 0.897598,0 z m 7.151915,2.531266 c 0,-0.223933 -0.169004,-0.40715 -0.375564,-0.40715 l -2.170761,0 c -0.210315,0 -0.375563,0.175074 -0.375563,0.40715 l 0,1.197022 c 0,0.232074 0.165248,0.40715 0.375563,0.40715 l 2.170761,0 c 0.20656,0 0.375564,-0.183218 0.375564,-0.40715 l 0,-1.197022 z m -2.546325,0 2.170761,0 0,1.197022 -2.170761,0 0,-1.197022 z m 0.953934,-2.730769 1.404609,0 c 0.09389,0 0.187782,-0.04885 0.187782,-0.203575 0,-0.154718 -0.09389,-0.203575 -0.187782,-0.203575 l -1.780174,0 0,1.197021 -0.76615,0 c -0.120181,0 -0.187782,0.05701 -0.187782,0.203575 0,0.146574 0.0676,0.203576 0.187782,0.203576 l 0.76615,0 c 0,0.105858 0.05258,0.203575 0.187783,0.203575 0.135202,0 0.187782,-0.09772 0.187782,-0.203575 l 1.085379,0 c 0.09389,0 0.187783,-0.04885 0.187783,-0.203576 0,-0.154717 -0.09389,-0.203575 -0.187783,-0.203575 l -1.085379,0 0,-0.789871 z m 8.36874,2.730769 c 0,-0.223933 -0.169003,-0.40715 -0.375563,-0.40715 l -2.17076,0 c -0.210316,0 -0.375564,0.175074 -0.375564,0.40715 l 0,1.197022 c 0,0.232074 0.165248,0.40715 0.375564,0.40715 l 2.17076,0 c 0.20656,0 0.375563,-0.183218 0.375563,-0.40715 l 0,-1.197022 z m -2.546323,0 2.17076,0 0,1.197022 -2.17076,0 0,-1.197022 z m 2.17076,-1.737323 -0.623436,0 c -0.210316,0 -0.274162,-0.08957 -0.274162,-0.203575 l 0,-0.798015 c 0,-0.105859 -0.05258,-0.203575 -0.187783,-0.203575 -0.135202,0 -0.187782,0.09772 -0.187782,0.203575 l 0,0.798015 c 0,0.114002 -0.06385,0.203575 -0.274161,0.203575 l -0.623436,0 0,-1.400596 c 0,-0.105859 -0.05258,-0.203576 -0.187782,-0.203576 -0.135203,0 -0.187782,0.09772 -0.187782,0.203576 l 0,1.400596 c 0,0.232075 0.161492,0.407151 0.375564,0.407151 l 0.721082,0 c 0.150227,0 0.25914,-0.03257 0.364297,-0.158789 0.105159,0.126217 0.214072,0.158789 0.364298,0.158789 l 0.721083,0 c 0.214071,0 0.375563,-0.175076 0.375563,-0.407151 l 0,-1.400596 c 0,-0.105859 -0.05258,-0.203576 -0.187782,-0.203576 -0.135202,0 -0.187781,0.09772 -0.187781,0.203576 l 0,1.400596 z m 7.151914,1.737323 c 0,-0.223933 -0.169004,-0.40715 -0.375564,-0.40715 l -2.17076,0 c -0.210316,0 -0.375564,0.175074 -0.375564,0.40715 l 0,1.197022 c 0,0.232074 0.165248,0.40715 0.375564,0.40715 l 2.17076,0 c 0.20656,0 0.375564,-0.183218 0.375564,-0.40715 l 0,-1.197022 z m -2.546324,0 2.17076,0 0,1.197022 -2.17076,0 0,-1.197022 z m 0.897598,-2.934344 0,1.148163 c 0,0.134359 0.01878,0.228004 0.105157,0.329792 0.09765,0.114002 0.19905,0.126217 0.334252,0.126217 l 0.769907,0 c 0.135203,0 0.236605,-0.01221 0.334252,-0.126217 0.08638,-0.101788 0.105158,-0.195433 0.105158,-0.329792 l 0,-1.351738 c 0,-0.105859 -0.05258,-0.203576 -0.187782,-0.203576 -0.135203,0 -0.187782,0.09772 -0.187782,0.203576 l 0,1.400596 -0.897598,0 0,-1.144092 c 0,-0.305363 -0.142715,-0.46008 -0.424387,-0.46008 l -1.224339,0 0,1.807748 c 0,0.105858 0.05257,0.203575 0.187782,0.203575 0.135203,0 0.187782,-0.09772 0.187782,-0.203575 l 0,-1.400597 0.897598,0 z m 8.425076,2.934344 c 0,-0.223933 -0.169004,-0.40715 -0.375564,-0.40715 l -2.170761,0 c -0.210315,0 -0.375563,0.175074 -0.375563,0.40715 l 0,1.197022 c 0,0.232074 0.165248,0.40715 0.375563,0.40715 l 2.170761,0 c 0.20656,0 0.375564,-0.183218 0.375564,-0.40715 l 0,-1.197022 z m -2.546325,0 2.170761,0 0,1.197022 -2.170761,0 0,-1.197022 z m 0,-2.132259 2.546325,0 0,-1.00566 c 0,-0.105859 -0.05258,-0.203576 -0.187782,-0.203576 -0.135204,0 -0.187782,0.09772 -0.187782,0.203576 l 0,0.59851 -2.170761,0 0,-0.59851 c 0,-0.105859 -0.05258,-0.203576 -0.187781,-0.203576 -0.135203,0 -0.187782,0.09772 -0.187782,0.203576 l 0,1.604172 c 0,0.105858 0.05258,0.203575 0.187782,0.203575 l 0.946421,0 c 0.108914,0 0.187782,-0.05292 0.187782,-0.203575 0,-0.150647 -0.07887,-0.203576 -0.187782,-0.203576 l -0.75864,0 0,-0.394936 z m 8.947111,2.535337 0,0.997519 c 0,0.105859 0.05258,0.203575 0.187781,0.203575 0.135204,0 0.187783,-0.09772 0.187783,-0.203575 l 0,-1.404668 -1.648726,0 0,1.201093 -0.897598,0 0,-0.940518 c 0,-0.06515 0.05257,-0.158788 0.07512,-0.215789 l 0.04882,-0.122146 c 0.01878,-0.04478 0.03004,-0.08143 0.03004,-0.130288 0,-0.105859 -0.09014,-0.195431 -0.187783,-0.195431 -0.131447,0 -0.165247,0.122144 -0.210315,0.232076 l -0.06385,0.154716 c -0.04131,0.101788 -0.0676,0.16286 -0.0676,0.268719 l 0,0.903873 c 0,0.146575 0.01502,0.252434 0.127692,0.354222 0.09389,0.0855 0.176515,0.09772 0.292939,0.09772 l 0.803707,0 c 0.131448,0 0.221583,-0.01221 0.319229,-0.126217 0.08638,-0.09772 0.105159,-0.195432 0.105159,-0.325721 l 0,-0.749155 0.897597,0 z" />
      </g>
    </g>
  </g>
</svg>
